<svg width="124" height="125" viewBox="0 0 124 125" fill="none" xmlns="http://www.w3.org/2000/svg">
<path d="M50.2692 5.97166C51.7773 5.97166 52.9998 4.74066 52.9998 3.22216C52.9998 1.70366 51.7773 0.472656 50.2692 0.472656C48.7612 0.472656 47.5386 1.70366 47.5386 3.22216C47.5386 4.74066 48.7612 5.97166 50.2692 5.97166Z" fill="#C3C4FF"/>
<path d="M73.7804 5.96922C75.2885 5.96922 76.511 4.73822 76.511 3.21972C76.511 1.70122 75.2885 0.470215 73.7804 0.470215C72.2724 0.470215 71.0498 1.70122 71.0498 3.21972C71.0498 4.73822 72.2724 5.96922 73.7804 5.96922Z" fill="#C3C4FF"/>
<path d="M97.2907 5.96922C98.7988 5.96922 100.021 4.73822 100.021 3.21972C100.021 1.70122 98.7988 0.470215 97.2907 0.470215C95.7827 0.470215 94.5601 1.70122 94.5601 3.21972C94.5601 4.73822 95.7827 5.96922 97.2907 5.96922Z" fill="#C3C4FF"/>
<path d="M120.8 5.96922C122.309 5.96922 123.531 4.73822 123.531 3.21972C123.531 1.70122 122.309 0.470215 120.8 0.470215C119.292 0.470215 118.07 1.70122 118.07 3.21972C118.07 4.73822 119.292 5.96922 120.8 5.96922Z" fill="#C3C4FF"/>
<path d="M50.2692 29.6468C51.7773 29.6468 52.9998 28.4157 52.9998 26.8972C52.9998 25.3787 51.7773 24.1477 50.2692 24.1477C48.7612 24.1477 47.5386 25.3787 47.5386 26.8972C47.5386 28.4157 48.7612 29.6468 50.2692 29.6468Z" fill="#C3C4FF"/>
<path d="M73.7804 29.649C75.2885 29.649 76.511 28.4179 76.511 26.8994C76.511 25.3809 75.2885 24.1499 73.7804 24.1499C72.2724 24.1499 71.0498 25.3809 71.0498 26.8994C71.0498 28.4179 72.2724 29.649 73.7804 29.649Z" fill="#C3C4FF"/>
<path d="M97.2907 29.649C98.7988 29.649 100.021 28.4179 100.021 26.8994C100.021 25.3809 98.7988 24.1499 97.2907 24.1499C95.7827 24.1499 94.5601 25.3809 94.5601 26.8994C94.5601 28.4179 95.7827 29.649 97.2907 29.649Z" fill="#C3C4FF"/>
<path d="M120.8 29.649C122.309 29.649 123.531 28.4179 123.531 26.8994C123.531 25.3809 122.309 24.1499 120.8 24.1499C119.292 24.1499 118.07 25.3809 118.07 26.8994C118.07 28.4179 119.292 29.649 120.8 29.649Z" fill="#C3C4FF"/>
<path d="M50.2692 53.3252C51.7773 53.3252 52.9998 52.0942 52.9998 50.5757C52.9998 49.0572 51.7773 47.8262 50.2692 47.8262C48.7612 47.8262 47.5386 49.0572 47.5386 50.5757C47.5386 52.0942 48.7612 53.3252 50.2692 53.3252Z" fill="#C3C4FF"/>
<path d="M97.2907 53.3291C98.7988 53.3291 100.021 52.0981 100.021 50.5796C100.021 49.0611 98.7988 47.8301 97.2907 47.8301C95.7827 47.8301 94.5601 49.0611 94.5601 50.5796C94.5601 52.0981 95.7827 53.3291 97.2907 53.3291Z" fill="#C3C4FF"/>
<path d="M73.7804 53.3291C75.2885 53.3291 76.511 52.0981 76.511 50.5796C76.511 49.0611 75.2885 47.8301 73.7804 47.8301C72.2724 47.8301 71.0498 49.0611 71.0498 50.5796C71.0498 52.0981 72.2724 53.3291 73.7804 53.3291Z" fill="#C3C4FF"/>
<path d="M120.8 53.3291C122.309 53.3291 123.531 52.0981 123.531 50.5796C123.531 49.0611 122.309 47.8301 120.8 47.8301C119.292 47.8301 118.07 49.0611 118.07 50.5796C118.07 52.0981 119.292 53.3291 120.8 53.3291Z" fill="#C3C4FF"/>
<path d="M50.2692 77C51.7773 77 52.9998 75.769 52.9998 74.2505C52.9998 72.732 51.7773 71.501 50.2692 71.501C48.7612 71.501 47.5386 72.732 47.5386 74.2505C47.5386 75.769 48.7612 77 50.2692 77Z" fill="#C3C4FF"/>
<path d="M120.8 76.999C122.309 76.999 123.531 75.768 123.531 74.2495C123.531 72.731 122.309 71.5 120.8 71.5C119.292 71.5 118.07 72.731 118.07 74.2495C118.07 75.768 119.292 76.999 120.8 76.999Z" fill="#C3C4FF"/>
<path d="M97.2907 76.999C98.7988 76.999 100.021 75.768 100.021 74.2495C100.021 72.731 98.7988 71.5 97.2907 71.5C95.7827 71.5 94.5601 72.731 94.5601 74.2495C94.5601 75.768 95.7827 76.999 97.2907 76.999Z" fill="#C3C4FF"/>
<path d="M73.7804 76.999C75.2885 76.999 76.511 75.768 76.511 74.2495C76.511 72.731 75.2885 71.5 73.7804 71.5C72.2724 71.5 71.0498 72.731 71.0498 74.2495C71.0498 75.768 72.2724 76.999 73.7804 76.999Z" fill="#C3C4FF"/>
<path d="M26.7579 5.97166C28.266 5.97166 29.4885 4.74066 29.4885 3.22216C29.4885 1.70366 28.266 0.472656 26.7579 0.472656C25.2498 0.472656 24.0273 1.70366 24.0273 3.22216C24.0273 4.74066 25.2498 5.97166 26.7579 5.97166Z" fill="#C3C4FF"/>
<path d="M26.7579 29.6468C28.266 29.6468 29.4885 28.4157 29.4885 26.8972C29.4885 25.3787 28.266 24.1477 26.7579 24.1477C25.2498 24.1477 24.0273 25.3787 24.0273 26.8972C24.0273 28.4157 25.2498 29.6468 26.7579 29.6468Z" fill="#C3C4FF"/>
<path d="M26.7579 53.3252C28.266 53.3252 29.4885 52.0942 29.4885 50.5757C29.4885 49.0572 28.266 47.8262 26.7579 47.8262C25.2498 47.8262 24.0273 49.0572 24.0273 50.5757C24.0273 52.0942 25.2498 53.3252 26.7579 53.3252Z" fill="#C3C4FF"/>
<path d="M26.7579 77C28.266 77 29.4885 75.769 29.4885 74.2505C29.4885 72.732 28.266 71.501 26.7579 71.501C25.2498 71.501 24.0273 72.732 24.0273 74.2505C24.0273 75.769 25.2498 77 26.7579 77Z" fill="#C3C4FF"/>
<path d="M3.24232 5.97166C4.75032 5.97166 5.97292 4.74066 5.97292 3.22216C5.97292 1.70366 4.75032 0.472656 3.24232 0.472656C1.73422 0.472656 0.511719 1.70366 0.511719 3.22216C0.511719 4.74066 1.73422 5.97166 3.24232 5.97166Z" fill="#C3C4FF"/>
<path d="M3.24232 29.6468C4.75032 29.6468 5.97292 28.4157 5.97292 26.8972C5.97292 25.3787 4.75032 24.1477 3.24232 24.1477C1.73422 24.1477 0.511719 25.3787 0.511719 26.8972C0.511719 28.4157 1.73422 29.6468 3.24232 29.6468Z" fill="#C3C4FF"/>
<path d="M50.2706 100.679C51.7787 100.679 53.0012 99.4479 53.0012 97.9294C53.0012 96.4109 51.7787 95.1799 50.2706 95.1799C48.7626 95.1799 47.54 96.4109 47.54 97.9294C47.54 99.4479 48.7626 100.679 50.2706 100.679Z" fill="#C3C4FF"/>
<path d="M73.7804 100.679C75.2885 100.679 76.511 99.4479 76.511 97.9294C76.511 96.4109 75.2885 95.1799 73.7804 95.1799C72.2724 95.1799 71.0498 96.4109 71.0498 97.9294C71.0498 99.4479 72.2724 100.679 73.7804 100.679Z" fill="#C3C4FF"/>
<path d="M97.2907 100.679C98.7988 100.679 100.021 99.4479 100.021 97.9294C100.021 96.4109 98.7988 95.1799 97.2907 95.1799C95.7827 95.1799 94.5601 96.4109 94.5601 97.9294C94.5601 99.4479 95.7827 100.679 97.2907 100.679Z" fill="#C3C4FF"/>
<path d="M120.8 100.679C122.309 100.679 123.531 99.4479 123.531 97.9294C123.531 96.4109 122.309 95.1799 120.8 95.1799C119.292 95.1799 118.07 96.4109 118.07 97.9294C118.07 99.4479 119.292 100.679 120.8 100.679Z" fill="#C3C4FF"/>
<path d="M50.2706 124.359C51.7787 124.359 53.0012 123.128 53.0012 121.61C53.0012 120.091 51.7787 118.86 50.2706 118.86C48.7626 118.86 47.54 120.091 47.54 121.61C47.54 123.128 48.7626 124.359 50.2706 124.359Z" fill="#C3C4FF"/>
<path d="M73.7804 124.359C75.2885 124.359 76.511 123.128 76.511 121.61C76.511 120.091 75.2885 118.86 73.7804 118.86C72.2724 118.86 71.0498 120.091 71.0498 121.61C71.0498 123.128 72.2724 124.359 73.7804 124.359Z" fill="#C3C4FF"/>
<path d="M97.2907 124.359C98.7988 124.359 100.021 123.128 100.021 121.61C100.021 120.091 98.7988 118.86 97.2907 118.86C95.7827 118.86 94.5601 120.091 94.5601 121.61C94.5601 123.128 95.7827 124.359 97.2907 124.359Z" fill="#C3C4FF"/>
<path d="M120.8 124.359C122.309 124.359 123.531 123.128 123.531 121.61C123.531 120.091 122.309 118.86 120.8 118.86C119.292 118.86 118.07 120.091 118.07 121.61C118.07 123.128 119.292 124.359 120.8 124.359Z" fill="#C3C4FF"/>
<path d="M26.7604 100.679C28.2685 100.679 29.491 99.4479 29.491 97.9294C29.491 96.4109 28.2685 95.1799 26.7604 95.1799C25.2523 95.1799 24.0298 96.4109 24.0298 97.9294C24.0298 99.4479 25.2523 100.679 26.7604 100.679Z" fill="#C3C4FF"/>
<path d="M26.7604 124.359C28.2685 124.359 29.491 123.128 29.491 121.61C29.491 120.091 28.2685 118.86 26.7604 118.86C25.2523 118.86 24.0298 120.091 24.0298 121.61C24.0298 123.128 25.2523 124.359 26.7604 124.359Z" fill="#C3C4FF"/>
<path d="M3.24037 100.679C4.74837 100.679 5.97097 99.4479 5.97097 97.9294C5.97097 96.4109 4.74837 95.1799 3.24037 95.1799C1.73227 95.1799 0.509766 96.4109 0.509766 97.9294C0.509766 99.4479 1.73227 100.679 3.24037 100.679Z" fill="#C3C4FF"/>
<path d="M3.24037 124.359C4.74837 124.359 5.97097 123.128 5.97097 121.61C5.97097 120.091 4.74837 118.86 3.24037 118.86C1.73227 118.86 0.509766 120.091 0.509766 121.61C0.509766 123.128 1.73227 124.359 3.24037 124.359Z" fill="#C3C4FF"/>
<path d="M3.24232 53.3252C4.75032 53.3252 5.97292 52.0942 5.97292 50.5757C5.97292 49.0572 4.75032 47.8262 3.24232 47.8262C1.73422 47.8262 0.511719 49.0572 0.511719 50.5757C0.511719 52.0942 1.73422 53.3252 3.24232 53.3252Z" fill="#C3C4FF"/>
<path d="M3.24232 77C4.75032 77 5.97292 75.769 5.97292 74.2505C5.97292 72.732 4.75032 71.501 3.24232 71.501C1.73422 71.501 0.511719 72.732 0.511719 74.2505C0.511719 75.769 1.73422 77 3.24232 77Z" fill="#C3C4FF"/>
</svg>
